<?xml version="1.0" encoding="UTF-8"?> <svg xmlns="http://www.w3.org/2000/svg" id="Layer_1" data-name="Layer 1" width="2875" height="841" viewBox="0 0 2875 841"><defs><style> .cls-1 { fill: #353535; } .cls-2 { fill: #2f3640; } .cls-3 { fill: #2a2a2a; } .cls-4 { fill: #333; } </style></defs><path class="cls-1" d="M1519.12,444.92" transform="translate(45 41)"></path><path class="cls-2" d="M1523.22-47.38" transform="translate(45 41)"></path><path class="cls-3" d="M2800,800H0L-45,95A1837.2,1837.2,0,0,1,295,17c266.73-34.9,417.5,5.85,689,24,353.11,23.6,283.14-33,728-20,351.13,10.24,497.3,48.47,794,7a2336.94,2336.94,0,0,0,324-69Z" transform="translate(45 41)"></path><path class="cls-4" d="M2801,798H0V785c111.56-86.14,292.54-202.76,535-256,553.92-121.62,815.14,222.26,1224,47,286.09-122.63,320.45-360.56,636-407,165.06-24.29,309.52,18.16,406,58Z" transform="translate(45 41)"></path></svg> 